<mxfile host="Electron" agent="Mozilla/5.0 (Windows NT 10.0; Win64; x64) AppleWebKit/537.36 (KHTML, like Gecko) draw.io/24.7.17 Chrome/128.0.6613.36 Electron/32.0.1 Safari/537.36" version="24.7.17" pages="2">
  <diagram name="High level" id="EFrtl0MAVhM4Ai-avW80">
    <mxGraphModel dx="2474" dy="836" grid="1" gridSize="10" guides="1" tooltips="1" connect="1" arrows="1" fold="1" page="0" pageScale="1" pageWidth="827" pageHeight="1169" math="0" shadow="0">
      <root>
        <mxCell id="0" />
        <mxCell id="1" parent="0" />
        <mxCell id="sUl80W7cdaUvwRe7X0we-1" value="AuthModule" style="rounded=0;whiteSpace=wrap;html=1;horizontal=1;verticalAlign=top;align=center;fontStyle=1" parent="1" vertex="1">
          <mxGeometry x="-450" y="170" width="700" height="480" as="geometry" />
        </mxCell>
        <mxCell id="sUl80W7cdaUvwRe7X0we-3" value="SharedModule" style="rounded=0;whiteSpace=wrap;html=1;verticalAlign=top;fontStyle=1" parent="1" vertex="1">
          <mxGeometry x="290" y="160" width="420" height="340" as="geometry" />
        </mxCell>
        <mxCell id="sUl80W7cdaUvwRe7X0we-4" value="AppContext" style="swimlane;fontStyle=1;align=center;verticalAlign=top;childLayout=stackLayout;horizontal=1;startSize=26;horizontalStack=0;resizeParent=1;resizeParentMax=0;resizeLast=0;collapsible=1;marginBottom=0;whiteSpace=wrap;html=1;" parent="1" vertex="1">
          <mxGeometry x="320" y="216" width="160" height="104" as="geometry" />
        </mxCell>
        <mxCell id="sUl80W7cdaUvwRe7X0we-5" value="+ currentUser: CurrentUser&lt;div&gt;+ ipAddress: string&lt;/div&gt;" style="text;strokeColor=none;fillColor=none;align=left;verticalAlign=top;spacingLeft=4;spacingRight=4;overflow=hidden;rotatable=0;points=[[0,0.5],[1,0.5]];portConstraint=eastwest;whiteSpace=wrap;html=1;" parent="sUl80W7cdaUvwRe7X0we-4" vertex="1">
          <mxGeometry y="26" width="160" height="44" as="geometry" />
        </mxCell>
        <mxCell id="sUl80W7cdaUvwRe7X0we-6" value="" style="line;strokeWidth=1;fillColor=none;align=left;verticalAlign=middle;spacingTop=-1;spacingLeft=3;spacingRight=3;rotatable=0;labelPosition=right;points=[];portConstraint=eastwest;strokeColor=inherit;" parent="sUl80W7cdaUvwRe7X0we-4" vertex="1">
          <mxGeometry y="70" width="160" height="8" as="geometry" />
        </mxCell>
        <mxCell id="sUl80W7cdaUvwRe7X0we-7" value="..." style="text;strokeColor=none;fillColor=none;align=left;verticalAlign=top;spacingLeft=4;spacingRight=4;overflow=hidden;rotatable=0;points=[[0,0.5],[1,0.5]];portConstraint=eastwest;whiteSpace=wrap;html=1;" parent="sUl80W7cdaUvwRe7X0we-4" vertex="1">
          <mxGeometry y="78" width="160" height="26" as="geometry" />
        </mxCell>
        <mxCell id="sUl80W7cdaUvwRe7X0we-8" value="AuthFacade" style="swimlane;fontStyle=1;align=center;verticalAlign=top;childLayout=stackLayout;horizontal=1;startSize=26;horizontalStack=0;resizeParent=1;resizeParentMax=0;resizeLast=0;collapsible=1;marginBottom=0;whiteSpace=wrap;html=1;" parent="1" vertex="1">
          <mxGeometry x="-240" y="210" width="210" height="86" as="geometry" />
        </mxCell>
        <mxCell id="sUl80W7cdaUvwRe7X0we-9" value="..." style="text;strokeColor=none;fillColor=none;align=left;verticalAlign=top;spacingLeft=4;spacingRight=4;overflow=hidden;rotatable=0;points=[[0,0.5],[1,0.5]];portConstraint=eastwest;whiteSpace=wrap;html=1;" parent="sUl80W7cdaUvwRe7X0we-8" vertex="1">
          <mxGeometry y="26" width="210" height="26" as="geometry" />
        </mxCell>
        <mxCell id="sUl80W7cdaUvwRe7X0we-10" value="" style="line;strokeWidth=1;fillColor=none;align=left;verticalAlign=middle;spacingTop=-1;spacingLeft=3;spacingRight=3;rotatable=0;labelPosition=right;points=[];portConstraint=eastwest;strokeColor=inherit;" parent="sUl80W7cdaUvwRe7X0we-8" vertex="1">
          <mxGeometry y="52" width="210" height="8" as="geometry" />
        </mxCell>
        <mxCell id="sUl80W7cdaUvwRe7X0we-11" value="+ login(username, password): string" style="text;strokeColor=none;fillColor=none;align=left;verticalAlign=top;spacingLeft=4;spacingRight=4;overflow=hidden;rotatable=0;points=[[0,0.5],[1,0.5]];portConstraint=eastwest;whiteSpace=wrap;html=1;" parent="sUl80W7cdaUvwRe7X0we-8" vertex="1">
          <mxGeometry y="60" width="210" height="26" as="geometry" />
        </mxCell>
        <mxCell id="brJXIlO1n9VcAdbJ80Ny-1" value="UsersRepo" style="swimlane;fontStyle=1;align=center;verticalAlign=top;childLayout=stackLayout;horizontal=1;startSize=26;horizontalStack=0;resizeParent=1;resizeParentMax=0;resizeLast=0;collapsible=1;marginBottom=0;whiteSpace=wrap;html=1;" parent="1" vertex="1">
          <mxGeometry x="-370" y="550" width="230" height="86" as="geometry" />
        </mxCell>
        <mxCell id="brJXIlO1n9VcAdbJ80Ny-2" value="..." style="text;strokeColor=none;fillColor=none;align=left;verticalAlign=top;spacingLeft=4;spacingRight=4;overflow=hidden;rotatable=0;points=[[0,0.5],[1,0.5]];portConstraint=eastwest;whiteSpace=wrap;html=1;" parent="brJXIlO1n9VcAdbJ80Ny-1" vertex="1">
          <mxGeometry y="26" width="230" height="26" as="geometry" />
        </mxCell>
        <mxCell id="brJXIlO1n9VcAdbJ80Ny-3" value="" style="line;strokeWidth=1;fillColor=none;align=left;verticalAlign=middle;spacingTop=-1;spacingLeft=3;spacingRight=3;rotatable=0;labelPosition=right;points=[];portConstraint=eastwest;strokeColor=inherit;" parent="brJXIlO1n9VcAdbJ80Ny-1" vertex="1">
          <mxGeometry y="52" width="230" height="8" as="geometry" />
        </mxCell>
        <mxCell id="brJXIlO1n9VcAdbJ80Ny-4" value="+ findByUsername(username): User" style="text;strokeColor=none;fillColor=none;align=left;verticalAlign=top;spacingLeft=4;spacingRight=4;overflow=hidden;rotatable=0;points=[[0,0.5],[1,0.5]];portConstraint=eastwest;whiteSpace=wrap;html=1;" parent="brJXIlO1n9VcAdbJ80Ny-1" vertex="1">
          <mxGeometry y="60" width="230" height="26" as="geometry" />
        </mxCell>
        <mxCell id="brJXIlO1n9VcAdbJ80Ny-5" value="JwtService" style="swimlane;fontStyle=1;align=center;verticalAlign=top;childLayout=stackLayout;horizontal=1;startSize=26;horizontalStack=0;resizeParent=1;resizeParentMax=0;resizeLast=0;collapsible=1;marginBottom=0;whiteSpace=wrap;html=1;" parent="1" vertex="1">
          <mxGeometry y="390" width="200" height="110" as="geometry" />
        </mxCell>
        <mxCell id="brJXIlO1n9VcAdbJ80Ny-6" value="..." style="text;strokeColor=none;fillColor=none;align=left;verticalAlign=top;spacingLeft=4;spacingRight=4;overflow=hidden;rotatable=0;points=[[0,0.5],[1,0.5]];portConstraint=eastwest;whiteSpace=wrap;html=1;" parent="brJXIlO1n9VcAdbJ80Ny-5" vertex="1">
          <mxGeometry y="26" width="200" height="26" as="geometry" />
        </mxCell>
        <mxCell id="brJXIlO1n9VcAdbJ80Ny-7" value="" style="line;strokeWidth=1;fillColor=none;align=left;verticalAlign=middle;spacingTop=-1;spacingLeft=3;spacingRight=3;rotatable=0;labelPosition=right;points=[];portConstraint=eastwest;strokeColor=inherit;" parent="brJXIlO1n9VcAdbJ80Ny-5" vertex="1">
          <mxGeometry y="52" width="200" height="8" as="geometry" />
        </mxCell>
        <mxCell id="brJXIlO1n9VcAdbJ80Ny-8" value="+ createJwt(currentUser): string&lt;div&gt;+ decodeJwt(jwt): CurrentUser&lt;/div&gt;" style="text;strokeColor=none;fillColor=none;align=left;verticalAlign=top;spacingLeft=4;spacingRight=4;overflow=hidden;rotatable=0;points=[[0,0.5],[1,0.5]];portConstraint=eastwest;whiteSpace=wrap;html=1;" parent="brJXIlO1n9VcAdbJ80Ny-5" vertex="1">
          <mxGeometry y="60" width="200" height="50" as="geometry" />
        </mxCell>
        <mxCell id="brJXIlO1n9VcAdbJ80Ny-10" value="AuthGuards" style="swimlane;fontStyle=1;align=center;verticalAlign=top;childLayout=stackLayout;horizontal=1;startSize=26;horizontalStack=0;resizeParent=1;resizeParentMax=0;resizeLast=0;collapsible=1;marginBottom=0;whiteSpace=wrap;html=1;" parent="1" vertex="1">
          <mxGeometry x="20" y="220" width="210" height="100" as="geometry" />
        </mxCell>
        <mxCell id="brJXIlO1n9VcAdbJ80Ny-11" value="..." style="text;strokeColor=none;fillColor=none;align=left;verticalAlign=top;spacingLeft=4;spacingRight=4;overflow=hidden;rotatable=0;points=[[0,0.5],[1,0.5]];portConstraint=eastwest;whiteSpace=wrap;html=1;" parent="brJXIlO1n9VcAdbJ80Ny-10" vertex="1">
          <mxGeometry y="26" width="210" height="26" as="geometry" />
        </mxCell>
        <mxCell id="brJXIlO1n9VcAdbJ80Ny-12" value="" style="line;strokeWidth=1;fillColor=none;align=left;verticalAlign=middle;spacingTop=-1;spacingLeft=3;spacingRight=3;rotatable=0;labelPosition=right;points=[];portConstraint=eastwest;strokeColor=inherit;" parent="brJXIlO1n9VcAdbJ80Ny-10" vertex="1">
          <mxGeometry y="52" width="210" height="8" as="geometry" />
        </mxCell>
        <mxCell id="brJXIlO1n9VcAdbJ80Ny-13" value="+ ensureLoggedIn(): void&lt;div&gt;+ canEditArticle(article): void&lt;/div&gt;" style="text;strokeColor=none;fillColor=none;align=left;verticalAlign=top;spacingLeft=4;spacingRight=4;overflow=hidden;rotatable=0;points=[[0,0.5],[1,0.5]];portConstraint=eastwest;whiteSpace=wrap;html=1;" parent="brJXIlO1n9VcAdbJ80Ny-10" vertex="1">
          <mxGeometry y="60" width="210" height="40" as="geometry" />
        </mxCell>
        <mxCell id="brJXIlO1n9VcAdbJ80Ny-14" value="AuthenticationService" style="swimlane;fontStyle=1;align=center;verticalAlign=top;childLayout=stackLayout;horizontal=1;startSize=26;horizontalStack=0;resizeParent=1;resizeParentMax=0;resizeLast=0;collapsible=1;marginBottom=0;whiteSpace=wrap;html=1;" parent="1" vertex="1">
          <mxGeometry x="-410" y="375" width="380" height="140" as="geometry" />
        </mxCell>
        <mxCell id="brJXIlO1n9VcAdbJ80Ny-15" value="..." style="text;strokeColor=none;fillColor=none;align=left;verticalAlign=top;spacingLeft=4;spacingRight=4;overflow=hidden;rotatable=0;points=[[0,0.5],[1,0.5]];portConstraint=eastwest;whiteSpace=wrap;html=1;" parent="brJXIlO1n9VcAdbJ80Ny-14" vertex="1">
          <mxGeometry y="26" width="380" height="26" as="geometry" />
        </mxCell>
        <mxCell id="brJXIlO1n9VcAdbJ80Ny-16" value="" style="line;strokeWidth=1;fillColor=none;align=left;verticalAlign=middle;spacingTop=-1;spacingLeft=3;spacingRight=3;rotatable=0;labelPosition=right;points=[];portConstraint=eastwest;strokeColor=inherit;" parent="brJXIlO1n9VcAdbJ80Ny-14" vertex="1">
          <mxGeometry y="52" width="380" height="8" as="geometry" />
        </mxCell>
        <mxCell id="brJXIlO1n9VcAdbJ80Ny-17" value="+ login(username, password): User&lt;div&gt;+ _hashPassword(password, salt): string&lt;/div&gt;&lt;div&gt;+ _verifyPassword(password, hashedPasswordWithSalt): boolean&lt;/div&gt;" style="text;strokeColor=none;fillColor=none;align=left;verticalAlign=top;spacingLeft=4;spacingRight=4;overflow=hidden;rotatable=0;points=[[0,0.5],[1,0.5]];portConstraint=eastwest;whiteSpace=wrap;html=1;" parent="brJXIlO1n9VcAdbJ80Ny-14" vertex="1">
          <mxGeometry y="60" width="380" height="80" as="geometry" />
        </mxCell>
        <mxCell id="XaWSXguvLr5mcvwmcUyY-1" value="AppConfig" style="swimlane;fontStyle=1;align=center;verticalAlign=top;childLayout=stackLayout;horizontal=1;startSize=26;horizontalStack=0;resizeParent=1;resizeParentMax=0;resizeLast=0;collapsible=1;marginBottom=0;whiteSpace=wrap;html=1;" vertex="1" parent="1">
          <mxGeometry x="500" y="216" width="190" height="104" as="geometry" />
        </mxCell>
        <mxCell id="XaWSXguvLr5mcvwmcUyY-2" value="+ jwt.secret: string&lt;div&gt;+ jwt.expiresInHours: number&lt;/div&gt;" style="text;strokeColor=none;fillColor=none;align=left;verticalAlign=top;spacingLeft=4;spacingRight=4;overflow=hidden;rotatable=0;points=[[0,0.5],[1,0.5]];portConstraint=eastwest;whiteSpace=wrap;html=1;" vertex="1" parent="XaWSXguvLr5mcvwmcUyY-1">
          <mxGeometry y="26" width="190" height="44" as="geometry" />
        </mxCell>
        <mxCell id="XaWSXguvLr5mcvwmcUyY-3" value="" style="line;strokeWidth=1;fillColor=none;align=left;verticalAlign=middle;spacingTop=-1;spacingLeft=3;spacingRight=3;rotatable=0;labelPosition=right;points=[];portConstraint=eastwest;strokeColor=inherit;" vertex="1" parent="XaWSXguvLr5mcvwmcUyY-1">
          <mxGeometry y="70" width="190" height="8" as="geometry" />
        </mxCell>
        <mxCell id="XaWSXguvLr5mcvwmcUyY-4" value="..." style="text;strokeColor=none;fillColor=none;align=left;verticalAlign=top;spacingLeft=4;spacingRight=4;overflow=hidden;rotatable=0;points=[[0,0.5],[1,0.5]];portConstraint=eastwest;whiteSpace=wrap;html=1;" vertex="1" parent="XaWSXguvLr5mcvwmcUyY-1">
          <mxGeometry y="78" width="190" height="26" as="geometry" />
        </mxCell>
        <mxCell id="XaWSXguvLr5mcvwmcUyY-5" value="AppError extends Error" style="swimlane;fontStyle=1;align=center;verticalAlign=top;childLayout=stackLayout;horizontal=1;startSize=26;horizontalStack=0;resizeParent=1;resizeParentMax=0;resizeLast=0;collapsible=1;marginBottom=0;whiteSpace=wrap;html=1;" vertex="1" parent="1">
          <mxGeometry x="320" y="350" width="160" height="104" as="geometry" />
        </mxCell>
        <mxCell id="XaWSXguvLr5mcvwmcUyY-6" value="+ type: ErrorType&lt;div&gt;+ messages: string&lt;/div&gt;" style="text;strokeColor=none;fillColor=none;align=left;verticalAlign=top;spacingLeft=4;spacingRight=4;overflow=hidden;rotatable=0;points=[[0,0.5],[1,0.5]];portConstraint=eastwest;whiteSpace=wrap;html=1;" vertex="1" parent="XaWSXguvLr5mcvwmcUyY-5">
          <mxGeometry y="26" width="160" height="44" as="geometry" />
        </mxCell>
        <mxCell id="XaWSXguvLr5mcvwmcUyY-7" value="" style="line;strokeWidth=1;fillColor=none;align=left;verticalAlign=middle;spacingTop=-1;spacingLeft=3;spacingRight=3;rotatable=0;labelPosition=right;points=[];portConstraint=eastwest;strokeColor=inherit;" vertex="1" parent="XaWSXguvLr5mcvwmcUyY-5">
          <mxGeometry y="70" width="160" height="8" as="geometry" />
        </mxCell>
        <mxCell id="XaWSXguvLr5mcvwmcUyY-8" value="..." style="text;strokeColor=none;fillColor=none;align=left;verticalAlign=top;spacingLeft=4;spacingRight=4;overflow=hidden;rotatable=0;points=[[0,0.5],[1,0.5]];portConstraint=eastwest;whiteSpace=wrap;html=1;" vertex="1" parent="XaWSXguvLr5mcvwmcUyY-5">
          <mxGeometry y="78" width="160" height="26" as="geometry" />
        </mxCell>
        <mxCell id="XaWSXguvLr5mcvwmcUyY-10" value="" style="endArrow=open;endFill=1;endSize=12;html=1;rounded=0;exitX=0.314;exitY=1.038;exitDx=0;exitDy=0;exitPerimeter=0;entryX=0.5;entryY=0;entryDx=0;entryDy=0;" edge="1" parent="1" source="sUl80W7cdaUvwRe7X0we-11" target="brJXIlO1n9VcAdbJ80Ny-14">
          <mxGeometry width="160" relative="1" as="geometry">
            <mxPoint x="-340" y="780" as="sourcePoint" />
            <mxPoint x="-180" y="780" as="targetPoint" />
          </mxGeometry>
        </mxCell>
        <mxCell id="XaWSXguvLr5mcvwmcUyY-13" value="" style="endArrow=open;endFill=1;endSize=12;html=1;rounded=0;exitX=0.466;exitY=0.988;exitDx=0;exitDy=0;exitPerimeter=0;entryX=0.57;entryY=0.023;entryDx=0;entryDy=0;entryPerimeter=0;" edge="1" parent="1" source="brJXIlO1n9VcAdbJ80Ny-17" target="brJXIlO1n9VcAdbJ80Ny-1">
          <mxGeometry width="160" relative="1" as="geometry">
            <mxPoint x="-67" y="315" as="sourcePoint" />
            <mxPoint x="-220" y="360" as="targetPoint" />
          </mxGeometry>
        </mxCell>
        <mxCell id="XaWSXguvLr5mcvwmcUyY-15" value="" style="endArrow=open;endFill=1;endSize=12;html=1;rounded=0;exitX=0.757;exitY=1;exitDx=0;exitDy=0;exitPerimeter=0;entryX=0.36;entryY=-0.009;entryDx=0;entryDy=0;entryPerimeter=0;" edge="1" parent="1" source="sUl80W7cdaUvwRe7X0we-11" target="brJXIlO1n9VcAdbJ80Ny-5">
          <mxGeometry width="160" relative="1" as="geometry">
            <mxPoint x="-127" y="305" as="sourcePoint" />
            <mxPoint x="-220" y="360" as="targetPoint" />
          </mxGeometry>
        </mxCell>
      </root>
    </mxGraphModel>
  </diagram>
  <diagram name="Auth classes" id="QpqwxjW4mBKvvHrWk-pZ">
    <mxGraphModel dx="2234" dy="1236" grid="1" gridSize="10" guides="1" tooltips="1" connect="1" arrows="1" fold="1" page="0" pageScale="1" pageWidth="827" pageHeight="1169" math="0" shadow="0">
      <root>
        <mxCell id="0" />
        <mxCell id="1" parent="0" />
        <mxCell id="dLGeQnkETojhtPIauS_d-5" value="User" style="swimlane;fontStyle=1;align=center;verticalAlign=top;childLayout=stackLayout;horizontal=1;startSize=26;horizontalStack=0;resizeParent=1;resizeParentMax=0;resizeLast=0;collapsible=1;marginBottom=0;whiteSpace=wrap;html=1;" parent="1" vertex="1">
          <mxGeometry x="-440" y="-160" width="160" height="184" as="geometry" />
        </mxCell>
        <mxCell id="dLGeQnkETojhtPIauS_d-6" value="+ id: string&lt;div&gt;+ tenantId: string&lt;br&gt;&lt;div&gt;+ name: string&lt;/div&gt;&lt;div&gt;+ username: string&lt;/div&gt;&lt;div&gt;+ password: string&lt;/div&gt;&lt;/div&gt;&lt;div&gt;+ createDate&lt;/div&gt;" style="text;strokeColor=none;fillColor=none;align=left;verticalAlign=top;spacingLeft=4;spacingRight=4;overflow=hidden;rotatable=0;points=[[0,0.5],[1,0.5]];portConstraint=eastwest;whiteSpace=wrap;html=1;" parent="dLGeQnkETojhtPIauS_d-5" vertex="1">
          <mxGeometry y="26" width="160" height="124" as="geometry" />
        </mxCell>
        <mxCell id="dLGeQnkETojhtPIauS_d-7" value="" style="line;strokeWidth=1;fillColor=none;align=left;verticalAlign=middle;spacingTop=-1;spacingLeft=3;spacingRight=3;rotatable=0;labelPosition=right;points=[];portConstraint=eastwest;strokeColor=inherit;" parent="dLGeQnkETojhtPIauS_d-5" vertex="1">
          <mxGeometry y="150" width="160" height="8" as="geometry" />
        </mxCell>
        <mxCell id="dLGeQnkETojhtPIauS_d-8" value="..." style="text;strokeColor=none;fillColor=none;align=left;verticalAlign=top;spacingLeft=4;spacingRight=4;overflow=hidden;rotatable=0;points=[[0,0.5],[1,0.5]];portConstraint=eastwest;whiteSpace=wrap;html=1;" parent="dLGeQnkETojhtPIauS_d-5" vertex="1">
          <mxGeometry y="158" width="160" height="26" as="geometry" />
        </mxCell>
      </root>
    </mxGraphModel>
  </diagram>
</mxfile>
